<svg xmlns="http://www.w3.org/2000/svg" width="29.5" height="29.5" viewBox="0 0 29.5 29.5">
  <g id="Group_36" data-name="Group 36" transform="translate(1.25 1.25)">
    <path id="Path_20" data-name="Path 20" d="M319.264,147.778A13.5,13.5,0,1,1,305.8,134.259,13.507,13.507,0,0,1,319.264,147.778Z" transform="translate(-292.264 -134.259)" fill="none" stroke="#fff" stroke-width="2.5" opacity="0.5"/>
    <path id="Path_22" data-name="Path 22" d="M311.524,168.963a11.144,11.144,0,0,1-5.55-1.351.559.559,0,0,1-.358-.546.509.509,0,0,1,.379-.464.594.594,0,0,1,.489.1,9.941,9.941,0,0,0,9.481.037.738.738,0,0,1,.482-.15.522.522,0,0,1,.157.988,10.422,10.422,0,0,1-2.2.934A10.159,10.159,0,0,1,311.524,168.963Z" transform="translate(-297.757 -148.485)" fill="#fff" stroke="#fff" stroke-width="1.5" opacity="0.5"/>
    <path id="Path_23" data-name="Path 23" d="M322.643,152.018a1.563,1.563,0,1,1,1.559,1.569A1.571,1.571,0,0,1,322.643,152.018Z" transform="translate(-305.59 -141.361)" fill="#fff" stroke="#fff" stroke-width="1" opacity="0.5"/>
    <path id="Path_24" data-name="Path 24" d="M307.539,152.032a1.564,1.564,0,1,1-1.551-1.58A1.565,1.565,0,0,1,307.539,152.032Z" transform="translate(-297.593 -141.362)" fill="#fff" stroke="#fff" stroke-width="1" opacity="0.5"/>
  </g>
</svg>
