<svg xmlns="http://www.w3.org/2000/svg" width="33.341" height="53.599" viewBox="0 0 33.341 53.599">
  <g id="line" transform="translate(1 1)">
    <path id="Path_57" data-name="Path 57" d="M552.494,353.685a8.54,8.54,0,1,0-5.629.016" transform="translate(-538.071 -337.081)" fill="none" stroke="#fff" stroke-linecap="round" stroke-linejoin="round" stroke-width="2"/>
    <path id="Path_58" data-name="Path 58" d="M569.844,384.8a13.232,13.232,0,1,1-26.463,0" transform="translate(-538.515 -346.429)" fill="none" stroke="#fff" stroke-linecap="round" stroke-linejoin="round" stroke-width="2"/>
    <line id="Line_15" data-name="Line 15" y1="9.649" transform="translate(31.329 28.015)" fill="none" stroke="#fff" stroke-linecap="round" stroke-linejoin="round" stroke-width="2"/>
    <path id="Path_59" data-name="Path 59" d="M569.3,370.972a2.814,2.814,0,0,1,5.624.236" transform="translate(-543.593 -343.193)" fill="none" stroke="#fff" stroke-linecap="round" stroke-linejoin="round" stroke-width="2"/>
    <path id="Path_60" data-name="Path 60" d="M562.3,370.739a2.814,2.814,0,0,1,5.624.236" transform="translate(-542.222 -343.147)" fill="none" stroke="#fff" stroke-linecap="round" stroke-linejoin="round" stroke-width="2"/>
    <path id="Path_61" data-name="Path 61" d="M562.307,370.631a2.814,2.814,0,1,1,5.61.452" transform="translate(-542.223 -343.147)" fill="none" stroke="#fff" stroke-linecap="round" stroke-linejoin="round" stroke-width="2"/>
    <path id="Path_62" data-name="Path 62" d="M555.265,370.276a2.814,2.814,0,1,1,5.617.36" transform="translate(-540.843 -343.068)" fill="none" stroke="#fff" stroke-linecap="round" stroke-linejoin="round" stroke-width="2"/>
    <path id="Path_63" data-name="Path 63" d="M538.119,371.979a2.814,2.814,0,1,1,4.048-3.91" transform="translate(-537.329 -342.984)" fill="none" stroke="#fff" stroke-linecap="round" stroke-linejoin="round" stroke-width="2"/>
    <path id="Path_64" data-name="Path 64" d="M548.265,347.86a2.814,2.814,0,1,1,5.629,0" transform="translate(-539.472 -338.641)" fill="none" stroke="#fff" stroke-linecap="round" stroke-linejoin="round" stroke-width="2"/>
    <line id="Line_16" data-name="Line 16" y1="17.959" transform="translate(14.422 9.218)" fill="none" stroke="#fff" stroke-linecap="round" stroke-linejoin="round" stroke-width="2"/>
    <line id="Line_17" data-name="Line 17" y2="22.346" transform="translate(8.794 9.218)" fill="none" stroke="#fff" stroke-linecap="round" stroke-linejoin="round" stroke-width="2"/>
    <line id="Line_18" data-name="Line 18" x1="1.574" y1="1.78" transform="translate(4.838 25.085)" fill="none" stroke="#fff" stroke-linecap="round" stroke-linejoin="round" stroke-width="2"/>
    <path id="Path_65" data-name="Path 65" d="M540.079,375.461a10.613,10.613,0,0,1,2.655,7.656" transform="translate(-537.868 -344.6)" fill="none" stroke="#fff" stroke-linecap="round" stroke-linejoin="round" stroke-width="2"/>
    <line id="Line_19" data-name="Line 19" x2="1.465" y2="1.914" transform="translate(0.79 28.996)" fill="none" stroke="#fff" stroke-linecap="round" stroke-linejoin="round" stroke-width="2"/>
    <path id="Path_66" data-name="Path 66" d="M569.859,384.781a13.232,13.232,0,1,1-26.463,0" transform="translate(-538.518 -346.426)" fill="none" stroke="#fff" stroke-linecap="round" stroke-linejoin="round" stroke-width="2"/>
  </g>
</svg>
