<svg xmlns="http://www.w3.org/2000/svg" width="48.378" height="59.121" viewBox="0 0 48.378 59.121">
  <g id="line" transform="translate(1.162 1)">
    <path id="Path_46" data-name="Path 46" d="M641.351,479.514a29.369,29.369,0,0,1,14.793,4.931" transform="translate(-611.055 -476.852)" fill="#040505" stroke="#fff" stroke-linecap="round" stroke-linejoin="round" stroke-width="2"/>
    <path id="Path_47" data-name="Path 47" d="M627.3,479.514a29.368,29.368,0,0,0-14.793,4.931" transform="translate(-611.801 -476.852)" fill="#040505" stroke="#fff" stroke-linecap="round" stroke-linejoin="round" stroke-width="2"/>
    <line id="Line_6" data-name="Line 6" x2="1.34" y2="7.426" transform="translate(44.715 1.026)" fill="none" stroke="#fff" stroke-linecap="round" stroke-linejoin="round" stroke-width="2"/>
    <line id="Line_7" data-name="Line 7" y1="1.341" x2="7.426" transform="translate(38.629 8.452)" fill="none" stroke="#fff" stroke-linecap="round" stroke-linejoin="round" stroke-width="2"/>
    <line id="Line_8" data-name="Line 8" x1="1.34" y2="7.426" transform="translate(0 1.026)" fill="none" stroke="#fff" stroke-linecap="round" stroke-linejoin="round" stroke-width="2"/>
    <line id="Line_9" data-name="Line 9" x1="7.426" y1="1.341" transform="translate(0 8.452)" fill="none" stroke="#fff" stroke-linecap="round" stroke-linejoin="round" stroke-width="2"/>
    <path id="Path_48" data-name="Path 48" d="M656.533,518.466a14.5,14.5,0,1,1-29,0" transform="translate(-611.412 -475.845)" fill="none" stroke="#fff" stroke-linecap="round" stroke-linejoin="round" stroke-width="2"/>
    <line id="Line_10" data-name="Line 10" y1="10.574" transform="translate(45.121 31.277)" fill="none" stroke="#fff" stroke-linecap="round" stroke-linejoin="round" stroke-width="2"/>
    <path id="Path_49" data-name="Path 49" d="M649.8,507.23a3.084,3.084,0,1,1,6.162.259" transform="translate(-610.837 -476.212)" fill="none" stroke="#fff" stroke-linecap="round" stroke-linejoin="round" stroke-width="2"/>
    <path id="Path_50" data-name="Path 50" d="M643.787,507.03a3.084,3.084,0,1,1,6.162.259" transform="translate(-610.992 -476.217)" fill="none" stroke="#fff" stroke-linecap="round" stroke-linejoin="round" stroke-width="2"/>
    <path id="Path_51" data-name="Path 51" d="M643.79,506.912a3.084,3.084,0,1,1,6.149.494" transform="translate(-610.992 -476.217)" fill="none" stroke="#fff" stroke-linecap="round" stroke-linejoin="round" stroke-width="2"/>
    <path id="Path_52" data-name="Path 52" d="M637.741,506.618a3.084,3.084,0,0,1,6.156.395" transform="translate(-611.149 -476.226)" fill="none" stroke="#fff" stroke-linecap="round" stroke-linejoin="round" stroke-width="2"/>
    <path id="Path_53" data-name="Path 53" d="M623.2,508.587a3.084,3.084,0,0,1,4.437-4.286" transform="translate(-611.547 -476.236)" fill="none" stroke="#fff" stroke-linecap="round" stroke-linejoin="round" stroke-width="2"/>
    <path id="Path_54" data-name="Path 54" d="M631.729,487.4a3.084,3.084,0,0,1,6.167,0" transform="translate(-611.304 -476.728)" fill="none" stroke="#fff" stroke-linecap="round" stroke-linejoin="round" stroke-width="2"/>
    <line id="Line_11" data-name="Line 11" y1="19.681" transform="translate(26.593 10.677)" fill="none" stroke="#fff" stroke-linecap="round" stroke-linejoin="round" stroke-width="2"/>
    <line id="Line_12" data-name="Line 12" y2="24.489" transform="translate(20.425 10.677)" fill="none" stroke="#fff" stroke-linecap="round" stroke-linejoin="round" stroke-width="2"/>
    <line id="Line_13" data-name="Line 13" x1="1.725" y1="1.951" transform="translate(16.09 28.066)" fill="none" stroke="#fff" stroke-linecap="round" stroke-linejoin="round" stroke-width="2"/>
    <path id="Path_55" data-name="Path 55" d="M624.7,510.447a11.632,11.632,0,0,1,2.909,8.39" transform="translate(-611.486 -476.052)" fill="none" stroke="#fff" stroke-linecap="round" stroke-linejoin="round" stroke-width="2"/>
    <line id="Line_14" data-name="Line 14" x2="1.605" y2="2.097" transform="translate(11.653 32.351)" fill="none" stroke="#fff" stroke-linecap="round" stroke-linejoin="round" stroke-width="2"/>
    <path id="Path_56" data-name="Path 56" d="M636.452,481.656a3.078,3.078,0,1,0-4.768.517" transform="translate(-611.329 -476.919)" fill="none" stroke="#fff" stroke-linecap="round" stroke-linejoin="round" stroke-width="2"/>
  </g>
</svg>
