<svg xmlns="http://www.w3.org/2000/svg" width="34.574" height="22.539" viewBox="0 0 34.574 22.539">
  <g id="line" transform="translate(1.25 1.25)" opacity="0.5">
    <path id="Path_25" data-name="Path 25" d="M114.529,145.838a.484.484,0,0,1-.429.434c-2.759.294-4.881,3.011-4.881,6.317,0,3.5,2.429,6.343,5.426,6.343h20.687c3.292,0,5.961-3,5.961-6.7,0-3.548-2.452-6.453-5.555-6.688a.516.516,0,0,1-.474-.417,7.831,7.831,0,0,0-13.735-3.349.5.5,0,0,1-.572.165,4.487,4.487,0,0,0-1.773-.342A4.663,4.663,0,0,0,114.529,145.838Z" transform="translate(-109.219 -138.893)" fill="none" stroke="#fff" stroke-linecap="round" stroke-linejoin="round" stroke-width="2.5"/>
  </g>
</svg>
